<svg id="koishi" width="1024" height="1024" viewBox="0 0 512 512"
  xmlns="http://www.w3.org/2000/svg">
  <circle cx="256" cy="256" r="256" fill="#53489C"/>
  <path d="M448.15,218.52a278,278,0,0,1-17.71,61.42,40.16,40.16,0,0,0,25-4,40,40,0,0,1-33.07,21.45,280.06,280.06,0,0,1-39.12,58.33,8,8,0,0,0-1.06,8.9L401,401l-36.37-18.77a8,8,0,0,0-8.9,1.06,280.06,280.06,0,0,1-58.33,39.12A40,40,0,0,1,276,455.48a40.16,40.16,0,0,0,4-25,278,278,0,0,1-61.42,17.71A25,25,0,0,1,193.87,471a25,25,0,0,0,8.69-20.66,281.77,281.77,0,0,1-56,.5C301.54,432,432,301.54,450.84,146.55a281.77,281.77,0,0,1-.5,56A25,25,0,0,0,471,193.87,25,25,0,0,1,448.15,218.52Z" fill="#FFFFFF"/>
</svg>
