<svg id="restart" width="1024" height="1024" viewBox="0 0 17 17"
  xmlns="http://www.w3.org/2000/svg">
  <path fill-rule="evenodd" clip-rule="evenodd" d="M13.4778 8.45668C13.4778 11.0838 11.3481 13.2136 8.72095 13.2136C6.78433 13.2136 5.11801 12.0563 4.37583 10.3955L2.90574 10.9927C3.88422 13.2333 6.11971 14.7992 8.72095 14.7992C12.2238 14.7992 15.0635 11.9596 15.0635 8.45668C15.0635 4.95381 12.2238 2.11417 8.72095 2.11417C6.6775 2.11417 4.85976 3.08054 3.6998 4.58119V2.64271H2.11417V6.87106L2.90699 7.66387H6.60678V6.07824H4.60045C5.42294 4.65641 6.96023 3.6998 8.72095 3.6998C11.3481 3.6998 13.4778 5.82953 13.4778 8.45668Z" fill="#3BA55E"/>
</svg>
